<svg xmlns="http://www.w3.org/2000/svg" xmlns:xlink="http://www.w3.org/1999/xlink" width="500" zoomAndPan="magnify" viewBox="0 0 375 374.999991" height="500" preserveAspectRatio="xMidYMid meet" version="1.0"><defs><g/></defs><g fill="#222222" fill-opacity="1"><g transform="translate(67.479932, 209.896133)"><g><path d="M 42.65625 -81.25 C 49.46875 -81.25 55.65625 -79.410156 61.21875 -75.734375 C 66.789062 -72.066406 71.253906 -67.125 74.609375 -60.90625 C 77.960938 -54.6875 79.640625 -47.789062 79.640625 -40.21875 C 79.640625 -32.65625 77.960938 -25.765625 74.609375 -19.546875 C 71.253906 -13.328125 66.789062 -8.378906 61.21875 -4.703125 C 55.65625 -1.023438 49.46875 0.8125 42.65625 0.8125 C 35.84375 0.8125 29.648438 -1.023438 24.078125 -4.703125 C 18.515625 -8.378906 14.054688 -13.328125 10.703125 -19.546875 C 7.347656 -25.765625 5.671875 -32.65625 5.671875 -40.21875 C 5.671875 -47.789062 7.347656 -54.6875 10.703125 -60.90625 C 14.054688 -67.125 18.515625 -72.066406 24.078125 -75.734375 C 29.648438 -79.410156 35.84375 -81.25 42.65625 -81.25 Z M 42.65625 -0.15625 C 50.976562 -0.15625 55.140625 -13.507812 55.140625 -40.21875 C 55.140625 -66.925781 50.976562 -80.28125 42.65625 -80.28125 C 34.21875 -80.28125 30 -66.925781 30 -40.21875 C 30 -13.507812 34.21875 -0.15625 42.65625 -0.15625 Z M 42.65625 -0.15625 "/></g></g></g><g fill="#222222" fill-opacity="1"><g transform="translate(135.435179, 209.896133)"><g><path d="M 72.328125 -12.171875 C 72.328125 -10.222656 72.976562 -8.488281 74.28125 -6.96875 C 75.582031 -5.457031 77.148438 -4.539062 78.984375 -4.21875 L 78.984375 -3.25 L 51.09375 0.8125 C 51.09375 0.8125 51.0625 0.8125 51 0.8125 C 50.945312 0.8125 50.867188 0.8125 50.765625 0.8125 C 50.003906 0.8125 49.328125 0.515625 48.734375 -0.078125 C 48.140625 -0.671875 47.84375 -1.347656 47.84375 -2.109375 L 47.84375 -6.15625 C 45.894531 -4.757812 43.269531 -3.25 39.96875 -1.625 C 36.675781 0 32.757812 0.8125 28.21875 0.8125 C 23.132812 0.8125 18.535156 -0.535156 14.421875 -3.234375 C 10.316406 -5.941406 7.671875 -9.566406 6.484375 -14.109375 C 5.191406 -18.753906 5.679688 -23.296875 7.953125 -27.734375 C 10.222656 -32.171875 13.570312 -35.738281 18 -38.4375 C 20.8125 -40.164062 24.378906 -41.8125 28.703125 -43.375 C 33.023438 -44.945312 37.566406 -46.515625 42.328125 -48.078125 C 47.085938 -49.648438 51.546875 -51.273438 55.703125 -52.953125 C 59.867188 -54.628906 63.273438 -56.46875 65.921875 -58.46875 C 68.578125 -60.46875 69.90625 -62.710938 69.90625 -65.203125 C 69.90625 -67.359375 68.957031 -69.519531 67.0625 -71.6875 C 65.164062 -73.851562 62.921875 -75.582031 60.328125 -76.875 C 57.191406 -78.382812 53.734375 -79.410156 49.953125 -79.953125 C 46.171875 -80.492188 42.28125 -80.441406 38.28125 -79.796875 C 32.113281 -78.929688 29.03125 -76.878906 29.03125 -73.640625 C 29.03125 -71.691406 29.625 -70.015625 30.8125 -68.609375 C 32 -67.203125 33.160156 -65.710938 34.296875 -64.140625 C 35.429688 -62.578125 36 -60.550781 36 -58.0625 C 36 -54.601562 34.753906 -51.65625 32.265625 -49.21875 C 29.785156 -46.789062 26.816406 -45.578125 23.359375 -45.578125 C 19.898438 -45.578125 16.953125 -46.789062 14.515625 -49.21875 C 12.078125 -51.65625 10.859375 -54.601562 10.859375 -58.0625 C 10.859375 -62.28125 12.316406 -65.984375 15.234375 -69.171875 C 18.160156 -72.359375 21.757812 -74.953125 26.03125 -76.953125 C 30.300781 -78.953125 34.328125 -80.222656 38.109375 -80.765625 C 46.765625 -82.066406 54.335938 -81.039062 60.828125 -77.6875 C 63.960938 -76.175781 66.660156 -74.039062 68.921875 -71.28125 C 71.191406 -68.519531 72.328125 -65.140625 72.328125 -61.140625 Z M 47.84375 -7.296875 L 47.84375 -48.984375 C 45.6875 -48.003906 43.28125 -46.675781 40.625 -45 C 37.976562 -43.332031 35.679688 -41.0625 33.734375 -38.1875 C 31.785156 -35.320312 30.648438 -31.617188 30.328125 -27.078125 C 30.109375 -23.191406 30.429688 -19.757812 31.296875 -16.78125 C 32.160156 -13.8125 33.457031 -11.40625 35.1875 -9.5625 C 37.03125 -7.625 39.164062 -6.4375 41.59375 -6 C 44.03125 -5.570312 46.113281 -6.003906 47.84375 -7.296875 Z M 47.84375 -7.296875 "/></g></g></g><g fill="#222222" fill-opacity="1"><g transform="translate(201.119804, 209.896133)"><g><path d="M 43.796875 -5.84375 C 45.628906 -5.84375 47.25 -6.328125 48.65625 -7.296875 L 48.65625 -6.15625 C 46.707031 -4.757812 44.054688 -3.25 40.703125 -1.625 C 37.359375 0 33.414062 0.8125 28.875 0.8125 C 23.894531 0.8125 19.617188 -0.96875 16.046875 -4.53125 C 12.484375 -8.101562 10.703125 -12.378906 10.703125 -17.359375 L 10.703125 -78.65625 L 4.0625 -78.65625 L 4.0625 -79.640625 C 10.113281 -79.640625 15.757812 -80.960938 21 -83.609375 C 26.25 -86.253906 30.601562 -89.796875 34.0625 -94.234375 L 35.03125 -94.234375 L 35.03125 -79.640625 L 45.578125 -79.640625 L 45.578125 -78.65625 L 35.03125 -78.65625 L 35.03125 -14.59375 C 35.03125 -12.21875 35.894531 -10.164062 37.625 -8.4375 C 39.351562 -6.707031 41.410156 -5.84375 43.796875 -5.84375 Z M 43.796875 -5.84375 "/></g></g></g><g fill="#222222" fill-opacity="1"><g transform="translate(234.853494, 209.896133)"><g><path d="M 66.828125 -21.890625 C 67.148438 -17.671875 65.90625 -13.832031 63.09375 -10.375 C 60.28125 -6.914062 56.492188 -4.1875 51.734375 -2.1875 C 46.984375 -0.1875 41.796875 0.8125 36.171875 0.8125 C 30.648438 0.8125 25.59375 -0.101562 21 -1.9375 C 16.40625 -3.78125 12.703125 -6.296875 9.890625 -9.484375 C 7.078125 -12.671875 5.671875 -16.269531 5.671875 -20.28125 C 5.671875 -23.738281 6.914062 -26.679688 9.40625 -29.109375 C 11.894531 -31.546875 14.816406 -32.765625 18.171875 -32.765625 C 21.628906 -32.765625 24.597656 -31.546875 27.078125 -29.109375 C 29.566406 -26.679688 30.8125 -23.738281 30.8125 -20.28125 C 30.8125 -17.351562 30.1875 -15.101562 28.9375 -13.53125 C 27.695312 -11.96875 26.425781 -10.671875 25.125 -9.640625 C 23.832031 -8.617188 23.1875 -7.40625 23.1875 -6 C 23.1875 -4.8125 23.78125 -3.675781 24.96875 -2.59375 C 26.164062 -1.507812 27.570312 -0.863281 29.1875 -0.65625 C 30.269531 -0.539062 31.296875 -0.425781 32.265625 -0.3125 C 33.242188 -0.207031 34.546875 -0.15625 36.171875 -0.15625 C 39.085938 -0.15625 41.570312 -1.179688 43.625 -3.234375 C 45.675781 -5.296875 46.703125 -7.785156 46.703125 -10.703125 C 46.703125 -13.410156 45.703125 -16.03125 43.703125 -18.5625 C 41.703125 -21.101562 39.160156 -23.644531 36.078125 -26.1875 C 33.003906 -28.726562 29.707031 -31.347656 26.1875 -34.046875 C 22.675781 -36.753906 19.378906 -39.539062 16.296875 -42.40625 C 13.210938 -45.269531 10.671875 -48.351562 8.671875 -51.65625 C 6.671875 -54.957031 5.671875 -58.5 5.671875 -62.28125 C 5.671875 -66.601562 7.128906 -70.171875 10.046875 -72.984375 C 12.972656 -75.796875 16.539062 -77.875 20.75 -79.21875 C 24.96875 -80.570312 29.082031 -81.25 33.09375 -81.25 C 36.976562 -81.25 40.242188 -80.867188 42.890625 -80.109375 C 45.546875 -79.359375 47.925781 -78.660156 50.03125 -78.015625 C 52.144531 -77.367188 54.335938 -77.097656 56.609375 -77.203125 C 57.472656 -77.304688 58.253906 -77.519531 58.953125 -77.84375 C 59.660156 -78.175781 60.226562 -78.554688 60.65625 -78.984375 L 61.46875 -78.984375 L 61.46875 -52.71875 C 61.46875 -52.71875 61.382812 -52.71875 61.21875 -52.71875 C 61.0625 -52.71875 60.875 -52.71875 60.65625 -52.71875 C 60.007812 -55.957031 58.925781 -59.578125 57.40625 -63.578125 C 55.894531 -67.578125 53.648438 -71.144531 50.671875 -74.28125 C 47.703125 -77.414062 43.570312 -79.304688 38.28125 -79.953125 C 35.46875 -80.390625 33.03125 -79.847656 30.96875 -78.328125 C 28.914062 -76.816406 27.785156 -74.332031 27.578125 -70.875 C 27.359375 -67.414062 28.460938 -64.222656 30.890625 -61.296875 C 33.328125 -58.378906 36.4375 -55.488281 40.21875 -52.625 C 44.007812 -49.757812 47.875 -46.8125 51.8125 -43.78125 C 55.757812 -40.757812 59.140625 -37.460938 61.953125 -33.890625 C 64.765625 -30.328125 66.390625 -26.328125 66.828125 -21.890625 Z M 66.828125 -21.890625 "/></g></g></g></svg>